<svg height="32" viewBox="0 0 150 32" width="150" xmlns="http://www.w3.org/2000/svg" xmlns:xlink="http://www.w3.org/1999/xlink"><path d="m23.0904098 20.7758769c-2.0139344 1.4436923-4.727459 2.2387693-7.6413934 2.2387693-.9467213 0-1.8885246-.0861539-2.7946721-.2572308l-1.0979509-.2055385-.832377.7347693c-.2323771.2067692-.5692623.4147692-.96639345.6166153l.59508195-1.620923-1.63524588-.9267693c-2.35081968-1.3316923-3.69713115-3.2344615-3.69713115-5.2196923 0-1.7033846.9897541-3.3513846 2.78729508-4.6412307 2.01393443-1.4424616 4.72745905-2.23876928 7.64139345-2.23876928s5.627459.79630768 7.6413934 2.23876928c1.797541 1.2898461 2.7885246 2.9378461 2.7885246 4.6412307 0 1.7021539-.9909836 3.3501539-2.7885246 4.64zm-7.6413934-13.73784613c-7.00573771 0-12.68360656 4.07261543-12.68360656 9.09784613 0 2.896 1.88606557 5.4756923 4.82581967 7.1409231-.55942623 1.5236923-1.43852459 2.2867692-2.12459017 2.9501538-.66147541.6424616-.4204918 1.488.9897541 1.1716924.97868853-.2203077 4.27622956-1.1372308 5.77499996-2.4615385 1.0278689.1932308 2.1061476.2953846 3.217623.2953846 7.0045082 0 12.6848361-4.0726154 12.6848361-9.0966154 0-5.0252307-5.6803279-9.09784613-12.6848361-9.09784613zm14.6938525 20.71753843c2.9397541-1.6664615 4.8258196-4.244923 4.8258196-7.140923 0-2.9144616-1.9118852-5.5101539-4.884836-7.1741539.2717213.8701539.4118852 1.7723077.4118852 2.6953846 0 3.1913846-1.6635246 6.144-4.6856557 8.3101539-2.7959017 2.0061538-6.4770492 3.1113846-10.3610656 3.1113846-.4844262 0-.967623-.0196923-1.4495902-.0541539 2.2229508 1.376 5.1196722 2.208 8.2856558 2.208 1.1114754 0 2.1897541-.1021538 3.2176229-.2953846 1.4987705 1.3243077 4.7963115 2.2412308 5.775 2.4615385 1.4102459.3150769 1.6512295-.5292308.9885246-1.1716923-.6848361-.6646154-1.5651639-1.4276923-2.1233606-2.9501539zm-24.35901644-18.9907692c1.67336065-1.20123077 3.69344262-2.05169231 5.89180324-2.50707692l.7709017-4.43323077c.0602459.01969231.1217213.02830769.1881147.02830769.3368853 0 .6086066-.26707692.6086066-.59815385 0-.32984615-.2717213-.59815384-.6086066-.59815384-.3356557 0-.6086065.26830769-.6086065.59815384 0 .13907693.0491803.26707693.1290983.368l-2.27581964 1.60492308-1.55778688-2.11076923c.18196721-.10338462.30368852-.29538461.30368852-.51815385 0-.33107692-.27172131-.59815384-.60860656-.59815384-.33442623 0-.60737704.26707692-.60737704.59815384 0 .25353847.15983606.47015385.38606557.5563077l-1.17418033 3.12861538-2.9557377-1.04615385c.01475409-.0516923.02336065-.10584615.02336065-.16123076 0-.3323077-.27295082-.59938462-.60860656-.59938462-.33688524 0-.60860655.26707692-.60860655.59938462 0 .32984615.27172131.59692307.60860655.59692307.05409837 0 .10696722-.00738461.15614755-.02092307l.73647541 2.42707692-2.78237705.97107692c-.075-.24615384-.30737705-.42584615-.58155738-.42584615-.33688525 0-.60860656.26830769-.60860656.59938461 0 .32984616.27172131.59815385.60860656.59815385.23852459 0 .44508197-.13661539.54467213-.33353846l3.86434426 1.87076923c.24344263-.20553846.49918033-.40369231.76598361-.59446154zm13.59713114 7.2258462c0 .5341538-.4401639.9673846-.9836066.9673846-.5434426 0-.9836065-.4332308-.9836065-.9673846 0-.5353847.4401639-.9686154.9836065-.9686154.5434427 0 .9836066.4332307.9836066.9686154zm-3.1057377 0c0 .5341538-.4401639.9673846-.9848361.9673846-.5434426 0-.984836-.4332308-.984836-.9673846 0-.5353847.4413934-.9686154.984836-.9686154.5446722 0 .9848361.4332307.9848361.9686154zm-3.1069672 0c0 .5341538-.4413935.9673846-.9848361.9673846s-.984836-.4332308-.984836-.9673846c0-.5353847.4413934-.9686154.984836-.9686154s.9848361.4332307.9848361.9686154zm135.5950823 5.8523076c-.422951.544-.936886.8135385-1.546722.8135385-.319672 0-.595082-.1243077-.827459-.3729231-.231147-.2510769-.34795-.596923-.34795-1.0387692v-5.1581538h2.830327v-2.3126154h-2.830327v-3.4449231h-3.286476v3.4449231h-1.370902v2.3126154h1.370902v5.3083076c0 1.2541539.388525 2.2461539 1.164344 2.9747693.77582.7273846 1.727459 1.0916923 2.85123 1.0916923 1.125 0 2.194672-.4566154 3.210246-1.3710769zm-11.558607-.9403076c0 .5846153-.222541 1.0510769-.665164 1.4006153-.441393.3495385-.952869.5243077-1.534426.5243077-.580328 0-1.027869-.1095384-1.337705-.3310769-.312295-.2203077-.468443-.5378461-.468443-.9526154 0-.7975384.652869-1.1987692 1.958607-1.1987692h2.047131zm1.936476-6.272c-.9-.699077-2.060656-1.0486154-3.481968-1.0486154-1.97459 0-3.730328.548923-5.268442 1.648l1.459426 2.0775384c.435246-.3286154.967623-.6043077 1.59959-.8258461.630738-.2203077 1.229508-.3310769 1.796312-.3310769 1.319262 0 1.979508.612923 1.979508 1.84v.0652307h-2.438115c-1.508607 0-2.7.2916923-3.569262.8775385-.871722.5846154-1.305738 1.4658461-1.305738 2.6424615s.420492 2.1193846 1.262705 2.8246154c.840984.7076923 1.882377 1.0609231 3.121721 1.0609231 1.241803 0 2.283197-.5206154 3.124181-1.5630769v1.3907692h3.068852v-7.3403077c0-1.5126154-.44877-2.6178462-1.34877-3.3181538zm-14.72582-1.0486154c-1.22582 0-2.331148.4923077-3.318443 1.476923v-5.65046149h-3.265574v15.88061539h3.265574v-6.2067692c0-.8972308.242213-1.579077.729099-2.043077.485655-.4652307 1.054918-.6966153 1.707786-.6966153 1.321722 0 1.981968.884923 1.981968 2.6547692v6.2916923h3.265573v-6.9981539c0-1.4264615-.421721-2.5686153-1.262704-3.424-.842214-.8578461-1.87623-1.284923-3.103279-1.284923zm-13.766803-.4061539c1.597131 0 2.932377.656 4.005737 1.968l2.111066-2.3544615c-1.684426-1.8683077-3.773361-2.80246155-6.268033-2.80246155-2.236475 0-4.126229.74092305-5.670492 2.22523075-1.545492 1.4843077-2.318852 3.3341539-2.318852 5.5544616 0 2.2178461.758606 4.0566153 2.27336 5.5101538 1.518443 1.456 3.447541 2.1846154 5.790984 2.1846154s4.379508-.9563077 6.105738-2.8676923l-2.17623-2.2043077c-1.059836 1.2972308-2.42459 1.9470769-4.091803 1.9470769-1.219672 0-2.256148-.4209231-3.114344-1.264-.854508-.8406154-1.283607-1.9581538-1.283607-3.3476923 0-1.3932308.453689-2.4984615 1.361066-3.3181538.907377-.8209231 1.99918-1.2307693 3.27541-1.2307693zm-10.07705 6.0996923c-.436475-.2572307-.809016-.4455384-1.1213111-.5673846-.3110656-.1206154-.8372951-.2953846-1.5786885-.5230769-.7389344-.2289231-1.2688525-.4295385-1.5885246-.6006154-.3184426-.1710769-.4782787-.4061538-.4782787-.7064615 0-.5415385.5028689-.8135385 1.5122951-.8135385 1.0081967 0 2.0213115.3433846 3.0368848 1.0289231l1.218443-2.1415385c-1.379508-.9132307-2.7577868-1.3698461-4.1360655-1.3698461s-2.5020492.3347692-3.3737705 1.0055384c-.8692623.6707693-1.3057377 1.5372308-1.3057377 2.6018462 0 1.0621538.4426229 1.8658461 1.3278688 2.4073846.4352459.2707692.822541.4787692 1.1643443.6203077.3405738.1427692.8348361.3138461 1.4815574.5144615.6442623.1993846 1.1372951.4135385 1.4790983.6412308.3405738.2289231.5114754.4775385.5114754.7495385 0 .2707692-.1229508.4886153-.3700819.6523077-.2471312.164923-.5815574.2461538-1.0020492.2461538-1.3782787 0-2.6766394-.464-3.895082-1.392l-1.4372951 2.0123077c.7549181.5993846 1.6032787 1.0535385 2.547541 1.36.9418033.3064615 1.8491804.4603077 2.7209017.4603077 1.3057377 0 2.3827869-.3433846 3.232377-1.0276923.848361-.6855385 1.272541-1.5950769 1.272541-2.7286154 0-1.1347692-.405738-1.9446154-1.218443-2.4295385zm-13.4950816 2.2252308c-.5237705.5575385-1.1766393.8356923-1.9598361.8356923-.7831967 0-1.4471311-.2818461-1.9918032-.8455385-.5434427-.5636923-.815164-1.3021538-.815164-2.2153846 0-.9132307.2790984-1.6332307.8385246-2.1624615.5569672-.528 1.2221312-.7926154 1.9905738-.7926154s1.4139344.2646154 1.9377049.7926154c.5213115.5292308.7831967 1.2529231.7831967 2.1735385 0 .9193846-.2618852 1.6590769-.7831967 2.2141538zm.7401639-6.2276923c-.9159836-1.1273846-2.0680327-1.6910769-3.4610655-1.6910769s-2.6311476.5452307-3.7118853 1.6381538c-1.0807377 1.0904616-1.6217213 2.4898462-1.6217213 4.1944616 0 1.7046153.5262295 3.0683076 1.577459 4.0886153 1.052459 1.019077 2.3446722 1.5298462 3.8766394 1.5298462 1.5295082 0 2.8094262-.5636923 3.8409836-1.6910769 0 1.2701538-.3479508 2.196923-1.0463115 2.7827692-.6959016.5833846-1.6426229.8775385-2.8389344.8775385-1.197541 0-2.3336066-.4012308-3.4069672-1.1987693l-1.262705 2.4184616c.6811476.5132307 1.4766394.9095384 2.3840164 1.1876923.9061476.2781538 1.795082.4172307 2.6655738.4172307 1.6401639 0 3.0614754-.4713846 4.267623-1.412923.6086065-.4566154 1.0954918-1.0843077 1.4569672-1.883077.3627049-.8.5446721-1.712.5446721-2.7396923v-10.0381538h-3.2643443zm-14.2807377-1.6910769c-1.2331967 0-2.3422131.4923077-3.3295082 1.476923v-1.284923h-3.2655737v11.5150769h3.2655737v-6.4209231c0-.8972308.2434427-1.5790769.7290984-2.0430769.4868852-.464 1.054918-.6966154 1.7090164-.6966154 1.3204918 0 1.9807377.8849231 1.9807377 2.6547692v6.5058462h3.2655738v-6.9981539c0-1.4264615-.4180328-2.5686153-1.2516394-3.424-.834836-.8578461-1.8688524-1.284923-3.1032787-1.284923zm-11.7528688 11.7070769h3.2643442v-11.5150769h-3.2643442zm1.6327869-16.20184616c-.5372951 0-.9909836.18215384-1.3610656.54646154-.370082.36430769-.5557377.80984612-.5557377 1.33784612 0 .5267693.1856557.9735385.5557377 1.3378462.370082.3630769.8237705.5452308 1.3610656.5452308.5360655 0 .9909836-.1821539 1.359836-.5452308.370082-.3643077.5545082-.8110769.5545082-1.3378462 0-.528-.1844262-.97353843-.5545082-1.33784612-.3688524-.3643077-.8237705-.54646154-1.359836-.54646154zm-6.4217213 1.24184616-5.7467214 6.1415385v-6.1415385h-3.3946721v14.96h3.3946721v-4.2363077l1.5245902-1.6701538 4.4631148 5.9064615h3.9602459c-.6959017-.9550769-1.7495902-2.4073846-3.1561476-4.3544615-1.4077869-1.9483077-2.3729508-3.2775385-2.8954918-3.9913847l6.0516394-6.6141538z" fill="#fff" fill-rule="evenodd" mask="url(#a)"/></svg>